<!DOCTYPE svg PUBLIC "-//W3C//DTD SVG 20010904//EN" "http://www.w3.org/TR/2001/REC-SVG-20010904/DTD/svg10.dtd">
<svg version="1.0" xmlns="http://www.w3.org/2000/svg" width="1000px" height="1000px" viewBox="0 0 10000 10000">
    <g id="1" fill="#1a75d2">
        <path d="M1565 8774 c-228 -41 -438 -200 -540 -407 -89 -181 -80 171 -83 -3229 l-2 -3017 92 49 c101 52 240 100 371 127 76 16 318 17 3222 23 2966 5 3143 6 3200 23 276 81 482 286 557 554 22 76 22 93 26 820 l3 742 -1098 4 c-1225 3 -1149 -1 -1303 75 -101 49 -240 186 -288 284 -71 145 -72 160 -72 748 0 494 1 532 20 605 51 199 168 345 347 432 149 72 57 67 1286 70 l1108 4 -4 727 c-4 811 -1 778 -76 936 -77 163 -195 283 -356 361 -179 88 167 79 -3275 81 -2627 2 -3066 0 -3135 -12z m2735 -1342 c0 -178 0 -178 73 -201 215 -69 388 -200 516 -391 116 -173 164 -337 164 -555 0 -236 -57 -415 -184 -575 -40 -51 -40 -51 -15 -114 122 -304 89 -639 -89 -913 -100 -152 -227 -261 -392 -335 -73 -33 -73 -33 -73 -231 l0 -197 -782 2 -783 3 -3 148 -3 147 -374 0 -375 0 0 600 0 600 215 0 215 0 0 345 0 345 -215 0 -215 0 0 600 0 600 375 0 375 0 0 150 0 150 785 0 785 0 0 -178z"/>
        <path d="M6203 6289 c-60 -23 -122 -80 -155 -141 -23 -43 -23 -43 -26 -557 -3 -579 -4 -572 70 -656 22 -25 64 -58 92 -73 51 -27 51 -27 1401 -33 1332 -5 1360 -6 1458 -35 17 -5 18 23 15 643 -3 648 -3 648 -31 705 -30 61 -74 105 -140 140 -42 23 -42 23 -1337 25 -1273 2 -1296 2 -1347 -18z m861 -260 c154 -52 263 -169 311 -334 23 -79 16 -217 -15 -298 -49 -130 -173 -245 -306 -287 -73 -22 -198 -27 -273 -9 -238 54 -403 304 -361 547 50 300 352 478 644 381z"/>
        <path d="M8770 4210 c0 -250 0 -250 28 -250 86 0 184 67 228 155 22 46 27 73 32 163 5 108 5 108 -46 130 -67 29 -157 52 -204 52 -38 0 -38 0 -38 -250z"/>
        <path d="M8334 2195 c-91 -73 -283 -168 -409 -203 -100 -27 -100 -27 -3245 -33 -2905 -5 -3151 -6 -3220 -22 -109 -25 -166 -45 -251 -89 -75 -38 -199 -139 -199 -161 0 -30 92 -160 160 -228 121 -121 270 -195 436 -219 57 -8 911 -10 3119 -8 3040 3 3040 3 3113 26 217 67 383 202 482 393 63 122 80 204 87 417 3 100 4 182 1 182 -2 0 -36 -25 -74 -55z"/>
    </g>
    <g id="2" fill="#378adf">
        <path d="M1575 8775 c-38 -7 -92 -21 -120 -30 -227 -78 -413 -275 -487 -515 -23 -75 -23 -75 -26 -3091 l-2 -3016 117 59 c133 66 286 109 446 127 66 8 957 11 2876 11 2781 0 2781 0 2884 39 386 145 612 347 671 601 13 55 16 174 16 783 l0 717 -812 0 c-447 0 -850 4 -895 10 -157 18 -289 79 -397 185 -75 73 -125 154 -163 260 -28 80 -28 80 -28 660 0 580 0 580 27 653 38 106 83 176 164 258 55 56 90 81 165 118 157 78 134 76 1095 76 l845 0 -3 733 c-3 676 -5 736 -22 787 -84 255 -301 437 -660 555 -107 35 -107 35 -2864 34 -2220 -1 -2771 -3 -2827 -14z m2725 -1342 c0 -178 0 -178 62 -196 445 -131 742 -586 690 -1059 -19 -178 -75 -325 -172 -453 -51 -67 -51 -67 -21 -139 47 -113 64 -212 64 -371 0 -119 -4 -155 -26 -239 -48 -181 -154 -358 -284 -476 -64 -58 -186 -134 -265 -166 -48 -19 -48 -19 -48 -216 l0 -198 -785 0 -785 0 0 150 0 150 -375 0 -375 0 0 600 0 600 215 0 215 0 0 345 0 345 -215 0 -215 0 0 600 0 600 375 0 375 0 0 150 0 150 785 0 785 0 0 -177z"/>
        <path d="M3120 7080 l0 -150 -380 0 -380 0 0 -220 0 -220 153 0 c141 0 158 -2 197 -23 84 -44 80 -11 80 -700 0 -600 0 -610 -21 -647 -38 -67 -63 -75 -246 -78 l-163 -4 0 -219 0 -219 380 0 380 0 0 -150 0 -150 130 0 130 0 0 150 0 150 140 0 140 0 0 -150 0 -151 128 3 127 3 5 154 c5 155 5 155 74 168 82 15 184 47 247 79 167 83 285 272 297 475 13 231 -78 405 -261 499 -37 19 -67 37 -67 40 0 3 33 15 72 28 98 31 174 80 246 156 98 105 142 221 142 377 0 164 -54 306 -161 423 -122 132 -256 187 -541 222 -48 5 -48 5 -48 155 l0 149 -130 0 -130 0 0 -150 0 -150 -140 0 -140 0 0 150 0 150 -130 0 -130 0 0 -150z m730 -600 c201 -29 280 -102 280 -258 0 -125 -50 -196 -163 -231 -83 -25 -266 -41 -483 -41 l-164 0 0 270 0 270 233 0 c127 0 261 -5 297 -10z m-52 -956 c91 -19 121 -33 156 -74 34 -41 41 -69 41 -165 -1 -66 -5 -88 -25 -123 -52 -91 -128 -113 -427 -119 l-223 -5 0 251 0 251 200 0 c144 0 222 -4 278 -16z"/>
        <path d="M8620 5571 l0 -741 119 0 c105 0 258 -18 305 -36 16 -6 17 40 14 642 -3 649 -3 649 -31 706 -30 62 -74 106 -140 140 -34 18 -63 23 -154 26 l-113 4 0 -741z"/>
    </g>
</svg>
